<svg width="20" height="20" viewBox="0 0 20 20" fill="none" xmlns="http://www.w3.org/2000/svg">
<g clip-path="url(#clip0_3_20)">
<path d="M7.91665 1.66666C8.19024 1.66666 8.46115 1.72054 8.71391 1.82524C8.96667 1.92994 9.19634 2.0834 9.38979 2.27685C9.58325 2.47031 9.73671 2.69997 9.8414 2.95273C9.9461 3.2055 9.99999 3.4764 9.99999 3.74999V16.25C9.99887 16.7699 9.8034 17.2706 9.45199 17.6537C9.10057 18.0368 8.6186 18.2747 8.10075 18.3207C7.58289 18.3666 7.06657 18.2173 6.6532 17.902C6.23982 17.5867 5.95927 17.1282 5.86665 16.6167C5.51758 16.6944 5.15438 16.6809 4.81201 16.5776C4.46965 16.4743 4.15965 16.2845 3.91184 16.0267C3.66404 15.7688 3.48679 15.4515 3.39714 15.1053C3.30749 14.7591 3.30847 14.3957 3.39999 14.05C2.92069 13.896 2.49904 13.601 2.19022 13.2034C1.8814 12.8058 1.6998 12.3243 1.66918 11.8218C1.63856 11.3193 1.76036 10.8193 2.01862 10.3872C2.27689 9.95508 2.6596 9.611 3.11665 9.39999C2.8449 9.13153 2.6522 8.79352 2.5596 8.42291C2.46701 8.05231 2.47809 7.66338 2.59164 7.29865C2.70519 6.93392 2.91683 6.60743 3.20342 6.35488C3.49002 6.10232 3.84054 5.93343 4.21665 5.86666C4.15598 5.59384 4.15081 5.3116 4.20147 5.03674C4.25213 4.76189 4.35758 4.50004 4.51153 4.26677C4.66548 4.03351 4.86479 3.83361 5.0976 3.67898C5.33041 3.52434 5.59195 3.41812 5.86665 3.36666C5.95615 2.88855 6.21013 2.45682 6.58455 2.14633C6.95897 1.83583 7.43024 1.66614 7.91665 1.66666Z" stroke="#09090B" stroke-width="1.66667" stroke-linecap="round" stroke-linejoin="round"/>
<path d="M12.0833 1.66666C11.5308 1.66666 11.0009 1.88615 10.6102 2.27685C10.2195 2.66755 10 3.19746 10 3.74999V16.25C10.0011 16.7699 10.1966 17.2706 10.548 17.6537C10.8994 18.0368 11.3814 18.2747 11.8992 18.3207C12.4171 18.3666 12.9334 18.2173 13.3468 17.902C13.7602 17.5867 14.0407 17.1282 14.1333 16.6167C14.4824 16.6944 14.8456 16.6809 15.188 16.5776C15.5303 16.4743 15.8403 16.2845 16.0881 16.0267C16.3359 15.7688 16.5132 15.4515 16.6028 15.1053C16.6925 14.7591 16.6915 14.3957 16.6 14.05C17.0793 13.896 17.5009 13.601 17.8098 13.2034C18.1186 12.8058 18.3002 12.3243 18.3308 11.8218C18.3614 11.3193 18.2396 10.8193 17.9814 10.3872C17.7231 9.95508 17.3404 9.611 16.8833 9.39999C17.1551 9.13153 17.3478 8.79352 17.4404 8.42291C17.533 8.05231 17.5219 7.66338 17.4083 7.29865C17.2948 6.93392 17.0832 6.60743 16.7966 6.35488C16.51 6.10232 16.1594 5.93343 15.7833 5.86666C15.844 5.59384 15.8492 5.3116 15.7985 5.03674C15.7479 4.76189 15.6424 4.50004 15.4885 4.26677C15.3345 4.03351 15.1352 3.83361 14.9024 3.67898C14.6696 3.52434 14.408 3.41812 14.1333 3.36666C14.0438 2.88855 13.7899 2.45682 13.4154 2.14633C13.041 1.83583 12.5697 1.66614 12.0833 1.66666Z" stroke="#09090B" stroke-width="1.66667" stroke-linecap="round" stroke-linejoin="round"/>
</g>
<defs>
<clipPath id="clip0_3_20">
<rect width="20" height="20" fill="white"/>
</clipPath>
</defs>
</svg>
