<svg width="91" height="18" viewBox="0 0 91 18" fill="none" xmlns="http://www.w3.org/2000/svg">
<path d="M9.287 13.5H6.425L2.888 8.559L2.276 9.288V13.5H0.08V0.899999H2.276V5.877L6.443 0.899999H9.314L4.319 6.84L9.287 13.5ZM11.8595 13.734C11.5475 13.734 11.2805 13.626 11.0585 13.41C10.8425 13.188 10.7345 12.918 10.7345 12.6C10.7345 12.294 10.8425 12.03 11.0585 11.808C11.2805 11.586 11.5475 11.475 11.8595 11.475C12.1715 11.475 12.4385 11.586 12.6605 11.808C12.8825 12.03 12.9935 12.294 12.9935 12.6C12.9935 12.918 12.8825 13.188 12.6605 13.41C12.4385 13.626 12.1715 13.734 11.8595 13.734ZM15.605 13.5V0.899999H17.981L23.3 9.531V0.899999H25.496V13.5H23.129L17.801 4.869V13.5H15.605ZM34.777 -1.07288e-06H36.973V13.5H34.777V12.375C34.489 12.777 34.126 13.104 33.688 13.356C33.25 13.608 32.743 13.734 32.167 13.734C31.513 13.734 30.901 13.611 30.331 13.365C29.761 13.119 29.257 12.78 28.819 12.348C28.387 11.91 28.048 11.406 27.802 10.836C27.556 10.266 27.433 9.654 27.433 9C27.433 8.346 27.556 7.734 27.802 7.164C28.048 6.594 28.387 6.093 28.819 5.661C29.257 5.223 29.761 4.881 30.331 4.635C30.901 4.389 31.513 4.266 32.167 4.266C32.743 4.266 33.25 4.392 33.688 4.644C34.126 4.89 34.489 5.217 34.777 5.625V-1.07288e-06ZM32.194 11.619C32.662 11.619 33.076 11.502 33.436 11.268C33.796 11.034 34.078 10.719 34.282 10.323C34.486 9.921 34.588 9.48 34.588 9C34.588 8.514 34.486 8.073 34.282 7.677C34.078 7.275 33.793 6.957 33.427 6.723C33.067 6.489 32.656 6.372 32.194 6.372C31.732 6.372 31.309 6.492 30.925 6.732C30.547 6.966 30.244 7.281 30.016 7.677C29.794 8.073 29.683 8.514 29.683 9C29.683 9.486 29.797 9.927 30.025 10.323C30.253 10.719 30.556 11.034 30.934 11.268C31.318 11.502 31.738 11.619 32.194 11.619ZM46.2305 4.5H48.4265V13.5H46.2305L46.1315 12.384C45.8855 12.786 45.5585 13.113 45.1505 13.365C44.7485 13.611 44.2715 13.734 43.7195 13.734C43.0535 13.734 42.4295 13.608 41.8475 13.356C41.2655 13.104 40.7525 12.756 40.3085 12.312C39.8705 11.868 39.5255 11.355 39.2735 10.773C39.0275 10.191 38.9045 9.567 38.9045 8.901C38.9045 8.259 39.0215 7.656 39.2555 7.092C39.4955 6.528 39.8285 6.033 40.2545 5.607C40.6805 5.181 41.1725 4.848 41.7305 4.608C42.2885 4.368 42.8885 4.248 43.5305 4.248C44.1245 4.248 44.6555 4.38 45.1235 4.644C45.5975 4.908 45.9995 5.244 46.3295 5.652L46.2305 4.5ZM43.6655 11.619C44.1335 11.619 44.5475 11.502 44.9075 11.268C45.2675 11.034 45.5495 10.719 45.7535 10.323C45.9575 9.921 46.0595 9.48 46.0595 9C46.0595 8.514 45.9575 8.073 45.7535 7.677C45.5495 7.275 45.2645 6.957 44.8985 6.723C44.5385 6.489 44.1275 6.372 43.6655 6.372C43.2035 6.372 42.7805 6.492 42.3965 6.732C42.0185 6.966 41.7155 7.281 41.4875 7.677C41.2655 8.073 41.1545 8.514 41.1545 9C41.1545 9.486 41.2685 9.927 41.4965 10.323C41.7245 10.719 42.0275 11.034 42.4055 11.268C42.7895 11.502 43.2095 11.619 43.6655 11.619ZM58.9666 7.812V13.5H56.7706V8.388C56.7706 8.034 56.6836 7.713 56.5096 7.425C56.3356 7.131 56.1016 6.9 55.8076 6.732C55.5196 6.558 55.1986 6.471 54.8446 6.471C54.4906 6.471 54.1666 6.558 53.8726 6.732C53.5846 6.9 53.3536 7.131 53.1796 7.425C53.0116 7.713 52.9276 8.034 52.9276 8.388V13.5H50.7316L50.7226 -1.07288e-06H52.9186L52.9276 5.301C53.2336 4.977 53.5996 4.722 54.0256 4.536C54.4516 4.344 54.9106 4.248 55.4026 4.248C56.0566 4.248 56.6536 4.41 57.1936 4.734C57.7336 5.052 58.1626 5.481 58.4806 6.021C58.8046 6.555 58.9666 7.152 58.9666 7.812ZM67.8199 4.5H70.0159V13.5H67.8199L67.7209 12.384C67.4749 12.786 67.1479 13.113 66.7399 13.365C66.3379 13.611 65.8609 13.734 65.3089 13.734C64.6429 13.734 64.0189 13.608 63.4369 13.356C62.8549 13.104 62.3419 12.756 61.8979 12.312C61.4599 11.868 61.1149 11.355 60.8629 10.773C60.6169 10.191 60.4939 9.567 60.4939 8.901C60.4939 8.259 60.6109 7.656 60.8449 7.092C61.0849 6.528 61.4179 6.033 61.8439 5.607C62.2699 5.181 62.7619 4.848 63.3199 4.608C63.8779 4.368 64.4779 4.248 65.1199 4.248C65.7139 4.248 66.2449 4.38 66.7129 4.644C67.1869 4.908 67.5889 5.244 67.9189 5.652L67.8199 4.5ZM65.2549 11.619C65.7229 11.619 66.1369 11.502 66.4969 11.268C66.8569 11.034 67.1389 10.719 67.3429 10.323C67.5469 9.921 67.6489 9.48 67.6489 9C67.6489 8.514 67.5469 8.073 67.3429 7.677C67.1389 7.275 66.8539 6.957 66.4879 6.723C66.1279 6.489 65.7169 6.372 65.2549 6.372C64.7929 6.372 64.3699 6.492 63.9859 6.732C63.6079 6.966 63.3049 7.281 63.0769 7.677C62.8549 8.073 62.7439 8.514 62.7439 9C62.7439 9.486 62.8579 9.927 63.0859 10.323C63.3139 10.719 63.6169 11.034 63.9949 11.268C64.3789 11.502 64.7989 11.619 65.2549 11.619ZM77.9411 4.5H80.2721L75.3491 18H73.0181L74.6471 13.5L71.4071 4.5H73.8101L75.7451 10.494L77.9411 4.5ZM85.5814 13.734C84.7534 13.734 83.9974 13.521 83.3134 13.095C82.6354 12.669 82.0924 12.099 81.6844 11.385C81.2824 10.665 81.0814 9.87 81.0814 9C81.0814 8.34 81.1984 7.725 81.4324 7.155C81.6664 6.579 81.9874 6.075 82.3954 5.643C82.8094 5.205 83.2894 4.863 83.8354 4.617C84.3814 4.371 84.9634 4.248 85.5814 4.248C86.4094 4.248 87.1624 4.461 87.8404 4.887C88.5244 5.313 89.0674 5.886 89.4694 6.606C89.8774 7.326 90.0814 8.124 90.0814 9C90.0814 9.654 89.9644 10.266 89.7304 10.836C89.4964 11.406 89.1724 11.91 88.7584 12.348C88.3504 12.78 87.8734 13.119 87.3274 13.365C86.7874 13.611 86.2054 13.734 85.5814 13.734ZM85.5814 11.538C86.0194 11.538 86.4124 11.421 86.7604 11.187C87.1084 10.953 87.3814 10.644 87.5794 10.26C87.7834 9.876 87.8854 9.456 87.8854 9C87.8854 8.532 87.7804 8.106 87.5704 7.722C87.3664 7.332 87.0874 7.023 86.7334 6.795C86.3854 6.561 86.0014 6.444 85.5814 6.444C85.1494 6.444 84.7594 6.561 84.4114 6.795C84.0634 7.029 83.7874 7.341 83.5834 7.731C83.3794 8.121 83.2774 8.544 83.2774 9C83.2774 9.474 83.3824 9.903 83.5924 10.287C83.8024 10.671 84.0814 10.977 84.4294 11.205C84.7834 11.427 85.1674 11.538 85.5814 11.538Z" fill="#09090B"/>
</svg>
